<?xml version="1.0" standalone="no"?>
<!DOCTYPE svg PUBLIC "-//W3C//DTD SVG 20010904//EN"
 "http://www.w3.org/TR/2001/REC-SVG-20010904/DTD/svg10.dtd">
<svg version="1.0" xmlns="http://www.w3.org/2000/svg"
 width="1280.000000pt" height="1280.000000pt" viewBox="0 0 1280.000000 1280.000000"
 preserveAspectRatio="xMidYMid meet">

<g transform="translate(0.000000,1280.000000) scale(0.100000,-0.100000)"
fill="#0097a7" stroke="none">
<path d="M2573 10889 c-247 -41 -473 -212 -587 -444 -87 -177 -81 -53 -81
-1590 l0 -1360 23 -78 c68 -236 221 -419 437 -523 212 -102 481 -103 694 -4
226 106 402 329 452 573 19 95 19 135 17 1430 l-3 1332 -23 75 c-95 311 -330
526 -637 585 -83 16 -209 18 -292 4z"/>
<path d="M5055 10893 c-64 -9 -153 -36 -223 -69 -206 -95 -357 -263 -434 -486
l-33 -93 -3 -2575 c-2 -1839 0 -2593 8 -2640 56 -325 315 -590 642 -656 119
-24 296 -15 403 21 280 93 486 317 552 600 17 77 18 185 18 2640 l0 2560 -23
85 c-84 315 -319 540 -634 604 -71 15 -201 19 -273 9z"/>
<path d="M7510 10894 c-343 -67 -586 -288 -671 -609 -29 -111 -29 -289 0 -400
118 -448 574 -708 1016 -580 270 78 469 277 557 555 20 65 23 96 23 225 0 160
-9 206 -63 330 -96 220 -301 395 -537 460 -59 16 -275 28 -325 19z"/>
<path d="M9948 10890 c-164 -28 -358 -133 -463 -251 -59 -67 -126 -174 -155
-250 -65 -168 -60 126 -58 -4034 l3 -3780 23 -75 c97 -315 326 -524 640 -586
441 -86 879 222 951 667 15 89 15 7549 1 7638 -65 395 -412 685 -815 680 -44
-1 -101 -5 -127 -9z"/>
<path d="M7422 8415 c-219 -57 -408 -206 -511 -405 -54 -103 -78 -182 -91
-297 -8 -70 -10 -821 -8 -2608 l3 -2510 22 -80 c65 -233 223 -427 431 -530
125 -62 208 -80 362 -79 152 0 217 14 338 70 234 107 404 321 458 572 11 57
14 462 14 2620 0 2288 -2 2561 -16 2630 -42 204 -169 389 -350 511 -183 123
-431 163 -652 106z"/>
<path d="M2617 5980 c-324 -39 -589 -266 -689 -590 l-23 -75 -3 -1330 c-2
-894 1 -1352 8 -1398 63 -410 433 -708 850 -684 351 20 636 249 742 597 l23
75 3 1329 c2 1185 1 1339 -14 1415 -57 309 -294 564 -594 639 -93 24 -214 32
-303 22z"/>
<path d="M5044 3519 c-312 -52 -558 -269 -656 -579 -20 -65 -23 -96 -23 -225
0 -117 4 -163 18 -210 75 -246 230 -428 449 -529 121 -56 186 -70 338 -70 154
-1 236 17 363 80 485 239 604 886 235 1280 -187 200 -464 297 -724 253z"/>
</g>
</svg>
